<svg xmlns="http://www.w3.org/2000/svg" xmlns:xlink="http://www.w3.org/1999/xlink" version="1.1" width="256" height="256" viewBox="0 0 256 256" xml:space="preserve">
<g style="stroke: none; stroke-width: 0; stroke-dasharray: none; stroke-linecap: butt; stroke-linejoin: miter; stroke-miterlimit: 10; fill: none; fill-rule: nonzero; opacity: 1;" transform="translate(1.4065934065934016 1.4065934065934016) scale(2.81 2.81)">
	<rect x="1" y="48.99" rx="0" ry="0" width="36.76" height="36.76" style="stroke: none; stroke-width: 1; stroke-dasharray: none; stroke-linecap: butt; stroke-linejoin: miter; stroke-miterlimit: 10; fill: rgb(217,172,128); fill-rule: nonzero; opacity: 1;" transform=" matrix(1 0 0 1 0 0) "/>
	<rect x="22.68" y="69.77" rx="0" ry="0" width="7.07" height="10.22" style="stroke: none; stroke-width: 1; stroke-dasharray: none; stroke-linecap: butt; stroke-linejoin: miter; stroke-miterlimit: 10; fill: rgb(242,211,186); fill-rule: nonzero; opacity: 1;" transform=" matrix(1 0 0 1 0 0) "/>
	<polygon points="37.76,85.75 52.24,77.77 52.24,41.01 37.76,48.99 " style="stroke: none; stroke-width: 1; stroke-dasharray: none; stroke-linecap: butt; stroke-linejoin: miter; stroke-miterlimit: 10; fill: rgb(146,110,67); fill-rule: nonzero; opacity: 1;" transform="  matrix(1 0 0 1 0 0) "/>
	<polygon points="37.76,48.99 52.24,41.01 15.48,41.01 1,48.99 " style="stroke: none; stroke-width: 1; stroke-dasharray: none; stroke-linecap: butt; stroke-linejoin: miter; stroke-miterlimit: 10; fill: rgb(166,126,79); fill-rule: nonzero; opacity: 1;" transform="  matrix(1 0 0 1 0 0) "/>
	<path d="M 37.759 86.746 H 1 c -0.552 0 -1 -0.447 -1 -1 V 48.987 c 0 -0.553 0.448 -1 1 -1 h 36.759 c 0.552 0 1 0.447 1 1 v 36.759 C 38.759 86.299 38.312 86.746 37.759 86.746 z M 2 84.746 h 34.759 V 49.987 H 2 V 84.746 z" style="stroke: none; stroke-width: 1; stroke-dasharray: none; stroke-linecap: butt; stroke-linejoin: miter; stroke-miterlimit: 10; fill: rgb(0,0,0); fill-rule: nonzero; opacity: 1;" transform=" matrix(1 0 0 1 0 0) " stroke-linecap="round"/>
	<path d="M 29.744 80.99 h -7.066 c -0.552 0 -1 -0.447 -1 -1 V 69.768 c 0 -0.553 0.448 -1 1 -1 h 7.066 c 0.552 0 1 0.447 1 1 V 79.99 C 30.744 80.543 30.296 80.99 29.744 80.99 z M 23.678 78.99 h 5.066 v -8.223 h -5.066 V 78.99 z" style="stroke: none; stroke-width: 1; stroke-dasharray: none; stroke-linecap: butt; stroke-linejoin: miter; stroke-miterlimit: 10; fill: rgb(0,0,0); fill-rule: nonzero; opacity: 1;" transform=" matrix(1 0 0 1 0 0) " stroke-linecap="round"/>
	<path d="M 12.108 70.768 H 6.042 c -0.552 0 -1 -0.447 -1 -1 s 0.448 -1 1 -1 h 6.066 c 0.552 0 1 0.447 1 1 S 12.661 70.768 12.108 70.768 z" style="stroke: none; stroke-width: 1; stroke-dasharray: none; stroke-linecap: butt; stroke-linejoin: miter; stroke-miterlimit: 10; fill: rgb(0,0,0); fill-rule: nonzero; opacity: 1;" transform=" matrix(1 0 0 1 0 0) " stroke-linecap="round"/>
	<path d="M 12.108 80.99 H 6.042 c -0.552 0 -1 -0.447 -1 -1 s 0.448 -1 1 -1 h 6.066 c 0.552 0 1 0.447 1 1 S 12.661 80.99 12.108 80.99 z" style="stroke: none; stroke-width: 1; stroke-dasharray: none; stroke-linecap: butt; stroke-linejoin: miter; stroke-miterlimit: 10; fill: rgb(0,0,0); fill-rule: nonzero; opacity: 1;" transform=" matrix(1 0 0 1 0 0) " stroke-linecap="round"/>
	<path d="M 12.108 75.879 H 6.042 c -0.552 0 -1 -0.447 -1 -1 s 0.448 -1 1 -1 h 6.066 c 0.552 0 1 0.447 1 1 S 12.661 75.879 12.108 75.879 z" style="stroke: none; stroke-width: 1; stroke-dasharray: none; stroke-linecap: butt; stroke-linejoin: miter; stroke-miterlimit: 10; fill: rgb(0,0,0); fill-rule: nonzero; opacity: 1;" transform=" matrix(1 0 0 1 0 0) " stroke-linecap="round"/>
	<path d="M 37.759 86.746 c -0.176 0 -0.352 -0.047 -0.509 -0.139 c -0.304 -0.181 -0.491 -0.508 -0.491 -0.861 V 48.987 c 0 -0.364 0.198 -0.7 0.518 -0.876 l 14.481 -7.974 c 0.311 -0.169 0.686 -0.164 0.991 0.015 c 0.305 0.18 0.491 0.507 0.491 0.861 v 36.759 c 0 0.364 -0.198 0.7 -0.518 0.876 l -14.481 7.974 C 38.091 86.705 37.925 86.746 37.759 86.746 z M 38.759 49.578 v 34.476 l 12.481 -6.872 V 42.706 L 38.759 49.578 z" style="stroke: none; stroke-width: 1; stroke-dasharray: none; stroke-linecap: butt; stroke-linejoin: miter; stroke-miterlimit: 10; fill: rgb(0,0,0); fill-rule: nonzero; opacity: 1;" transform=" matrix(1 0 0 1 0 0) " stroke-linecap="round"/>
	<path d="M 37.759 49.987 H 1 c -0.457 0 -0.855 -0.309 -0.968 -0.751 c -0.114 -0.442 0.086 -0.905 0.486 -1.125 l 14.481 -7.974 c 0.148 -0.082 0.314 -0.124 0.482 -0.124 H 52.24 c 0.456 0 0.854 0.309 0.969 0.751 c 0.113 0.442 -0.087 0.905 -0.486 1.125 l -14.481 7.974 C 38.094 49.944 37.928 49.987 37.759 49.987 z M 4.889 47.987 h 32.613 l 10.85 -5.974 H 15.738 L 4.889 47.987 z" style="stroke: none; stroke-width: 1; stroke-dasharray: none; stroke-linecap: butt; stroke-linejoin: miter; stroke-miterlimit: 10; fill: rgb(0,0,0); fill-rule: nonzero; opacity: 1;" transform=" matrix(1 0 0 1 0 0) " stroke-linecap="round"/>
	<rect x="37.76" y="48.99" rx="0" ry="0" width="36.76" height="36.76" style="stroke: none; stroke-width: 1; stroke-dasharray: none; stroke-linecap: butt; stroke-linejoin: miter; stroke-miterlimit: 10; fill: rgb(217,172,128); fill-rule: nonzero; opacity: 1;" transform=" matrix(1 0 0 1 0 0) "/>
	<rect x="59.44" y="69.77" rx="0" ry="0" width="7.07" height="10.22" style="stroke: none; stroke-width: 1; stroke-dasharray: none; stroke-linecap: butt; stroke-linejoin: miter; stroke-miterlimit: 10; fill: rgb(242,211,186); fill-rule: nonzero; opacity: 1;" transform=" matrix(1 0 0 1 0 0) "/>
	<polygon points="74.52,85.75 89,77.77 89,41.01 74.52,48.99 " style="stroke: none; stroke-width: 1; stroke-dasharray: none; stroke-linecap: butt; stroke-linejoin: miter; stroke-miterlimit: 10; fill: rgb(146,110,67); fill-rule: nonzero; opacity: 1;" transform="  matrix(1 0 0 1 0 0) "/>
	<polygon points="74.52,48.99 89,41.01 52.24,41.01 37.76,48.99 " style="stroke: none; stroke-width: 1; stroke-dasharray: none; stroke-linecap: butt; stroke-linejoin: miter; stroke-miterlimit: 10; fill: rgb(166,126,79); fill-rule: nonzero; opacity: 1;" transform="  matrix(1 0 0 1 0 0) "/>
	<path d="M 74.519 86.746 H 37.759 c -0.552 0 -1 -0.447 -1 -1 V 48.987 c 0 -0.553 0.448 -1 1 -1 h 36.759 c 0.553 0 1 0.447 1 1 v 36.759 C 75.519 86.299 75.071 86.746 74.519 86.746 z M 38.759 84.746 h 34.759 V 49.987 H 38.759 V 84.746 z" style="stroke: none; stroke-width: 1; stroke-dasharray: none; stroke-linecap: butt; stroke-linejoin: miter; stroke-miterlimit: 10; fill: rgb(0,0,0); fill-rule: nonzero; opacity: 1;" transform=" matrix(1 0 0 1 0 0) " stroke-linecap="round"/>
	<path d="M 66.504 80.99 h -7.066 c -0.553 0 -1 -0.447 -1 -1 V 69.768 c 0 -0.553 0.447 -1 1 -1 h 7.066 c 0.553 0 1 0.447 1 1 V 79.99 C 67.504 80.543 67.057 80.99 66.504 80.99 z M 60.438 78.99 h 5.066 v -8.223 h -5.066 V 78.99 z" style="stroke: none; stroke-width: 1; stroke-dasharray: none; stroke-linecap: butt; stroke-linejoin: miter; stroke-miterlimit: 10; fill: rgb(0,0,0); fill-rule: nonzero; opacity: 1;" transform=" matrix(1 0 0 1 0 0) " stroke-linecap="round"/>
	<path d="M 48.868 70.768 h -6.066 c -0.552 0 -1 -0.447 -1 -1 s 0.448 -1 1 -1 h 6.066 c 0.553 0 1 0.447 1 1 S 49.421 70.768 48.868 70.768 z" style="stroke: none; stroke-width: 1; stroke-dasharray: none; stroke-linecap: butt; stroke-linejoin: miter; stroke-miterlimit: 10; fill: rgb(0,0,0); fill-rule: nonzero; opacity: 1;" transform=" matrix(1 0 0 1 0 0) " stroke-linecap="round"/>
	<path d="M 48.868 80.99 h -6.066 c -0.552 0 -1 -0.447 -1 -1 s 0.448 -1 1 -1 h 6.066 c 0.553 0 1 0.447 1 1 S 49.421 80.99 48.868 80.99 z" style="stroke: none; stroke-width: 1; stroke-dasharray: none; stroke-linecap: butt; stroke-linejoin: miter; stroke-miterlimit: 10; fill: rgb(0,0,0); fill-rule: nonzero; opacity: 1;" transform=" matrix(1 0 0 1 0 0) " stroke-linecap="round"/>
	<path d="M 48.868 75.879 h -6.066 c -0.552 0 -1 -0.447 -1 -1 s 0.448 -1 1 -1 h 6.066 c 0.553 0 1 0.447 1 1 S 49.421 75.879 48.868 75.879 z" style="stroke: none; stroke-width: 1; stroke-dasharray: none; stroke-linecap: butt; stroke-linejoin: miter; stroke-miterlimit: 10; fill: rgb(0,0,0); fill-rule: nonzero; opacity: 1;" transform=" matrix(1 0 0 1 0 0) " stroke-linecap="round"/>
	<path d="M 74.519 86.746 c -0.176 0 -0.352 -0.047 -0.509 -0.139 c -0.305 -0.181 -0.491 -0.508 -0.491 -0.861 V 48.987 c 0 -0.364 0.198 -0.7 0.518 -0.876 l 14.481 -7.974 c 0.311 -0.169 0.686 -0.164 0.991 0.015 C 89.813 40.332 90 40.66 90 41.013 v 36.759 c 0 0.364 -0.198 0.7 -0.518 0.876 l -14.481 7.974 C 74.851 86.705 74.685 86.746 74.519 86.746 z M 75.519 49.578 v 34.476 L 88 77.182 V 42.706 L 75.519 49.578 z" style="stroke: none; stroke-width: 1; stroke-dasharray: none; stroke-linecap: butt; stroke-linejoin: miter; stroke-miterlimit: 10; fill: rgb(0,0,0); fill-rule: nonzero; opacity: 1;" transform=" matrix(1 0 0 1 0 0) " stroke-linecap="round"/>
	<path d="M 74.519 49.987 H 37.759 c -0.457 0 -0.855 -0.309 -0.968 -0.751 c -0.114 -0.442 0.086 -0.905 0.486 -1.125 l 14.481 -7.974 c 0.147 -0.082 0.313 -0.124 0.482 -0.124 H 89 c 0.456 0 0.854 0.309 0.969 0.751 c 0.113 0.442 -0.087 0.905 -0.486 1.125 l -14.481 7.974 C 74.854 49.944 74.688 49.987 74.519 49.987 z M 41.648 47.987 h 32.613 l 10.849 -5.974 H 52.497 L 41.648 47.987 z" style="stroke: none; stroke-width: 1; stroke-dasharray: none; stroke-linecap: butt; stroke-linejoin: miter; stroke-miterlimit: 10; fill: rgb(0,0,0); fill-rule: nonzero; opacity: 1;" transform=" matrix(1 0 0 1 0 0) " stroke-linecap="round"/>
	<rect x="19.38" y="12.23" rx="0" ry="0" width="36.76" height="36.76" style="stroke: none; stroke-width: 1; stroke-dasharray: none; stroke-linecap: butt; stroke-linejoin: miter; stroke-miterlimit: 10; fill: rgb(217,172,128); fill-rule: nonzero; opacity: 1;" transform=" matrix(1 0 0 1 0 0) "/>
	<rect x="41.06" y="33.01" rx="0" ry="0" width="7.07" height="10.22" style="stroke: none; stroke-width: 1; stroke-dasharray: none; stroke-linecap: butt; stroke-linejoin: miter; stroke-miterlimit: 10; fill: rgb(242,211,186); fill-rule: nonzero; opacity: 1;" transform=" matrix(1 0 0 1 0 0) "/>
	<polygon points="56.14,48.99 70.62,41.01 70.62,4.25 56.14,12.23 " style="stroke: none; stroke-width: 1; stroke-dasharray: none; stroke-linecap: butt; stroke-linejoin: miter; stroke-miterlimit: 10; fill: rgb(146,110,67); fill-rule: nonzero; opacity: 1;" transform="  matrix(1 0 0 1 0 0) "/>
	<polygon points="56.14,12.23 70.62,4.25 33.86,4.25 19.38,12.23 " style="stroke: none; stroke-width: 1; stroke-dasharray: none; stroke-linecap: butt; stroke-linejoin: miter; stroke-miterlimit: 10; fill: rgb(166,126,79); fill-rule: nonzero; opacity: 1;" transform="  matrix(1 0 0 1 0 0) "/>
	<path d="M 56.14 49.987 H 19.38 c -0.552 0 -1 -0.447 -1 -1 v -36.76 c 0 -0.552 0.448 -1 1 -1 h 36.76 c 0.553 0 1 0.448 1 1 v 36.76 C 57.14 49.54 56.692 49.987 56.14 49.987 z M 20.38 47.987 h 34.76 v -34.76 H 20.38 V 47.987 z" style="stroke: none; stroke-width: 1; stroke-dasharray: none; stroke-linecap: butt; stroke-linejoin: miter; stroke-miterlimit: 10; fill: rgb(0,0,0); fill-rule: nonzero; opacity: 1;" transform=" matrix(1 0 0 1 0 0) " stroke-linecap="round"/>
	<path d="M 48.124 44.23 h -7.066 c -0.552 0 -1 -0.448 -1 -1 V 33.008 c 0 -0.552 0.448 -1 1 -1 h 7.066 c 0.553 0 1 0.448 1 1 V 43.23 C 49.124 43.783 48.677 44.23 48.124 44.23 z M 42.058 42.23 h 5.066 v -8.222 h -5.066 V 42.23 z" style="stroke: none; stroke-width: 1; stroke-dasharray: none; stroke-linecap: butt; stroke-linejoin: miter; stroke-miterlimit: 10; fill: rgb(0,0,0); fill-rule: nonzero; opacity: 1;" transform=" matrix(1 0 0 1 0 0) " stroke-linecap="round"/>
	<path d="M 30.488 34.008 h -6.066 c -0.552 0 -1 -0.448 -1 -1 s 0.448 -1 1 -1 h 6.066 c 0.552 0 1 0.448 1 1 S 31.04 34.008 30.488 34.008 z" style="stroke: none; stroke-width: 1; stroke-dasharray: none; stroke-linecap: butt; stroke-linejoin: miter; stroke-miterlimit: 10; fill: rgb(0,0,0); fill-rule: nonzero; opacity: 1;" transform=" matrix(1 0 0 1 0 0) " stroke-linecap="round"/>
	<path d="M 30.488 44.23 h -6.066 c -0.552 0 -1 -0.448 -1 -1 s 0.448 -1 1 -1 h 6.066 c 0.552 0 1 0.448 1 1 S 31.04 44.23 30.488 44.23 z" style="stroke: none; stroke-width: 1; stroke-dasharray: none; stroke-linecap: butt; stroke-linejoin: miter; stroke-miterlimit: 10; fill: rgb(0,0,0); fill-rule: nonzero; opacity: 1;" transform=" matrix(1 0 0 1 0 0) " stroke-linecap="round"/>
	<path d="M 30.488 39.119 h -6.066 c -0.552 0 -1 -0.448 -1 -1 s 0.448 -1 1 -1 h 6.066 c 0.552 0 1 0.448 1 1 S 31.04 39.119 30.488 39.119 z" style="stroke: none; stroke-width: 1; stroke-dasharray: none; stroke-linecap: butt; stroke-linejoin: miter; stroke-miterlimit: 10; fill: rgb(0,0,0); fill-rule: nonzero; opacity: 1;" transform=" matrix(1 0 0 1 0 0) " stroke-linecap="round"/>
	<path d="M 56.14 49.987 c -0.176 0 -0.352 -0.047 -0.509 -0.139 c -0.305 -0.181 -0.491 -0.508 -0.491 -0.861 v -36.76 c 0 -0.364 0.198 -0.7 0.518 -0.876 l 14.48 -7.974 c 0.311 -0.169 0.687 -0.165 0.991 0.015 S 71.62 3.9 71.62 4.253 v 36.76 c 0 0.365 -0.198 0.7 -0.518 0.876 l -14.48 7.974 C 56.472 49.946 56.306 49.987 56.14 49.987 z M 57.14 12.818 v 34.477 l 12.48 -6.873 V 5.946 L 57.14 12.818 z" style="stroke: none; stroke-width: 1; stroke-dasharray: none; stroke-linecap: butt; stroke-linejoin: miter; stroke-miterlimit: 10; fill: rgb(0,0,0); fill-rule: nonzero; opacity: 1;" transform=" matrix(1 0 0 1 0 0) " stroke-linecap="round"/>
	<path d="M 56.14 13.228 H 19.38 c -0.457 0 -0.855 -0.309 -0.968 -0.751 c -0.114 -0.442 0.086 -0.905 0.486 -1.125 l 14.481 -7.974 c 0.148 -0.082 0.314 -0.124 0.482 -0.124 H 70.62 c 0.456 0 0.854 0.309 0.969 0.751 c 0.113 0.442 -0.087 0.905 -0.486 1.125 l -14.48 7.974 C 56.475 13.185 56.309 13.228 56.14 13.228 z M 23.269 11.228 h 32.614 l 10.849 -5.974 H 34.118 L 23.269 11.228 z" style="stroke: none; stroke-width: 1; stroke-dasharray: none; stroke-linecap: butt; stroke-linejoin: miter; stroke-miterlimit: 10; fill: rgb(0,0,0); fill-rule: nonzero; opacity: 1;" transform=" matrix(1 0 0 1 0 0) " stroke-linecap="round"/>
	<path d="M 37.76 13.228 c -0.353 0 -0.695 -0.187 -0.877 -0.518 c -0.267 -0.484 -0.09 -1.092 0.394 -1.358 l 14.481 -7.974 c 0.485 -0.266 1.091 -0.09 1.358 0.394 c 0.267 0.484 0.09 1.092 -0.394 1.358 l -14.481 7.974 C 38.089 13.188 37.923 13.228 37.76 13.228 z" style="stroke: none; stroke-width: 1; stroke-dasharray: none; stroke-linecap: butt; stroke-linejoin: miter; stroke-miterlimit: 10; fill: rgb(0,0,0); fill-rule: nonzero; opacity: 1;" transform=" matrix(1 0 0 1 0 0) " stroke-linecap="round"/>
</g>
</svg>