<svg xmlns="http://www.w3.org/2000/svg" xmlns:xlink="http://www.w3.org/1999/xlink" version="1.1" width="256" height="256" viewBox="0 0 256 256" xml:space="preserve">
<g style="stroke: none; stroke-width: 0; stroke-dasharray: none; stroke-linecap: butt; stroke-linejoin: miter; stroke-miterlimit: 10; fill: none; fill-rule: nonzero; opacity: 1;" transform="translate(1.4065934065934016 1.4065934065934016) scale(2.81 2.81)">
	<path d="M 72.665 59.248 V 36.066 C 72.665 20.787 60.279 8.401 45 8.401 h 0 c -15.279 0 -27.665 12.386 -27.665 27.665 v 23.183 c 0 2.936 -1.286 5.725 -3.518 7.632 l 0 0 c -2.232 1.907 -3.518 4.696 -3.518 7.632 v 0 c 0 1.764 1.43 3.193 3.193 3.193 h 63.016 c 1.764 0 3.193 -1.43 3.193 -3.193 v 0 c 0 -2.936 -1.286 -5.725 -3.518 -7.632 v 0 C 73.951 64.973 72.665 62.184 72.665 59.248 z" style="stroke: none; stroke-width: 1; stroke-dasharray: none; stroke-linecap: butt; stroke-linejoin: miter; stroke-miterlimit: 10; fill: rgb(255,177,39); fill-rule: nonzero; opacity: 1;" transform=" matrix(1 0 0 1 0 0) " stroke-linecap="round"/>
	<path d="M 32.787 77.705 c 0 0.026 -0.004 0.052 -0.004 0.079 C 32.783 84.53 38.253 90 45 90 s 12.217 -5.47 12.217 -12.217 c 0 -0.027 -0.004 -0.052 -0.004 -0.079" style="stroke: none; stroke-width: 1; stroke-dasharray: none; stroke-linecap: butt; stroke-linejoin: miter; stroke-miterlimit: 10; fill: rgb(201,137,33); fill-rule: nonzero; opacity: 1;" transform=" matrix(1 0 0 1 0 0) " stroke-linecap="round"/>
	<circle cx="44.999" cy="4.719" r="4.719" style="stroke: none; stroke-width: 1; stroke-dasharray: none; stroke-linecap: butt; stroke-linejoin: miter; stroke-miterlimit: 10; fill: rgb(255,177,39); fill-rule: nonzero; opacity: 1;" transform="  matrix(1 0 0 1 0 0) "/>
	<path d="M 81.769 37.1 c -0.572 0 -1.034 -0.463 -1.034 -1.034 c 0 -14.676 -9.205 -28.08 -22.907 -33.353 c -0.533 -0.205 -0.799 -0.804 -0.594 -1.337 c 0.206 -0.533 0.808 -0.799 1.338 -0.594 C 73.065 6.36 82.803 20.54 82.803 36.065 C 82.803 36.637 82.341 37.1 81.769 37.1 z" style="stroke: none; stroke-width: 1; stroke-dasharray: none; stroke-linecap: butt; stroke-linejoin: miter; stroke-miterlimit: 10; fill: rgb(201,137,33); fill-rule: nonzero; opacity: 1;" transform=" matrix(1 0 0 1 0 0) " stroke-linecap="round"/>
	<path d="M 8.231 37.1 c -0.571 0 -1.034 -0.463 -1.034 -1.034 c 0 -15.525 9.738 -29.705 24.233 -35.284 c 0.533 -0.205 1.132 0.061 1.337 0.594 c 0.206 0.533 -0.061 1.132 -0.594 1.337 C 18.471 7.986 9.266 21.39 9.266 36.065 C 9.266 36.637 8.802 37.1 8.231 37.1 z" style="stroke: none; stroke-width: 1; stroke-dasharray: none; stroke-linecap: butt; stroke-linejoin: miter; stroke-miterlimit: 10; fill: rgb(201,137,33); fill-rule: nonzero; opacity: 1;" transform=" matrix(1 0 0 1 0 0) " stroke-linecap="round"/>
</g>
</svg>